<?xml version="1.0" encoding="UTF-8" standalone="no"?>
<svg width="87px" height="85px" viewBox="0 0 87 85" version="1.1" xmlns="http://www.w3.org/2000/svg" xmlns:xlink="http://www.w3.org/1999/xlink">
    <!-- Generator: Sketch 39.1 (31720) - http://www.bohemiancoding.com/sketch -->
    <title>e</title>
    <desc>Created with Sketch.</desc>
    <defs></defs>
    <g id="Page-1" stroke="none" stroke-width="1" fill="none" fill-rule="evenodd">
        <g id="Artboard" transform="translate(-64.000000, -60.000000)" fill="#F20909">
            <path d="M75.3934284,73.1965223 C67.6809538,81.0370021 64,90.8760356 64,102.559888 C64,115.473619 67.8562373,125.620123 75.919279,133.306868 C83.6317536,140.686143 94.1487645,144.529515 107.119745,144.529515 C118.86374,144.529515 128.504333,141.454817 136.041524,135.612891 C142.176447,130.693374 146.207968,124.543978 148.31137,116.857233 L134.288689,116.857233 C132.010004,122.39169 129.030184,126.542532 125.173946,129.30976 C120.616575,132.538193 117.416857,134.889093 107.119745,134.229277 C96.8226322,133.569461 91.6947953,131.769519 86.7868569,126.850002 C81.8789185,121.930485 125.87508,135.766625 125.173946,126.850001 C125.173946,126.850001 84.8587397,106.095791 106.593895,106.095791 C128.32905,106.095791 150.064206,106.095791 150.064206,106.095791 C149.713638,92.2596497 146.207968,81.3444719 139.547195,73.657727 C132.185287,65.0485726 121.142426,60.7439955 106.593894,60.7439955 C93.4476304,60.7439955 83.1059031,64.8948377 75.3934284,73.1965223 Z M106.944461,60.7439955 C124.122245,60.7439955 133.762839,70.3845887 135.515674,89.8410588 L78.8990987,89.8410588 C79.7755163,80.9015996 82.5800525,73.890259 87.4879909,68.6317536 C92.3959293,63.3732482 98.8814193,60.7439955 106.944461,60.7439955 L106.944461,60.7439955 Z" id="e"></path>
        </g>
    </g>
</svg>